<svg xmlns="http://www.w3.org/2000/svg" xmlns:xlink="http://www.w3.org/1999/xlink" version="1.1" x="0px" y="0px" viewBox="0 0 100 125" style="enable-background:new 0 0 100 100;" xml:space="preserve"><style type="text/css">
	.st0{fill-rule:evenodd;clip-rule:evenodd;}
</style><path d="M84.91,20.87H66.15V2.12c0.12,0.1,0.23,0.21,0.34,0.32l18.1,18.1C84.7,20.65,84.81,20.76,84.91,20.87z M86.53,25.21v67.68  c0,3.64-2.97,6.61-6.6,6.61H20.08c-3.64,0-6.6-2.97-6.6-6.61V7.11c0-3.64,2.97-6.61,6.6-6.61h41.74c0.39,0,0.77,0.03,1.14,0.09  v21.88c0,0.88,0.72,1.59,1.6,1.59h21.88C86.5,24.43,86.53,24.82,86.53,25.21z M43.46,30.5c0,3.6,2.94,6.54,6.53,6.54  c3.6,0,6.54-2.94,6.54-6.54c0-3.6-2.94-6.53-6.54-6.53C46.4,23.96,43.46,26.9,43.46,30.5z M38.51,56.74c0,0.67,0.54,1.21,1.21,1.21  h20.56c0.67,0,1.21-0.54,1.21-1.21v-6.96c0-5.79-4.34-10.61-9.93-11.38l1.07,7.69c0.05,0.36-0.08,0.69-0.36,0.92l-1.66,1.34  c-0.37,0.3-0.89,0.3-1.26,0L47.72,47c-0.28-0.23-0.41-0.56-0.36-0.92l1.07-7.69c-5.59,0.77-9.93,5.6-9.93,11.38V56.74z M68.29,83.87  c0-0.88-0.71-1.59-1.59-1.59H33.3c-0.88,0-1.6,0.71-1.6,1.59c0,0.88,0.72,1.6,1.6,1.6H66.7C67.58,85.47,68.29,84.75,68.29,83.87z   M76.75,75.5c0-0.88-0.71-1.59-1.59-1.59H24.84c-0.88,0-1.59,0.71-1.59,1.59s0.71,1.6,1.59,1.6h50.32  C76.04,77.1,76.75,76.38,76.75,75.5z M76.75,67.13c0-0.88-0.71-1.59-1.59-1.59H24.84c-0.88,0-1.59,0.71-1.59,1.59  c0,0.88,0.71,1.6,1.59,1.6h50.32C76.04,68.73,76.75,68.01,76.75,67.13z"/></svg>